<svg width="28" height="28" viewBox="0 0 28 28" fill="none" xmlns="http://www.w3.org/2000/svg">
<path d="M13.214 6.97582C13.214 10.7973 16.3274 18.6296 13.2137 18.6296C10.1 18.6296 1.13231 13.1669 1.1322 7.34C1.13216 3.6982 3.95245 0.0563965 7.17342 0.0563965C10.3944 0.0563965 14.5764 2.54924 13.214 6.97582Z" fill="#FFC90E"/>
<path d="M24.6439 3.92802C28.2683 10.9254 14.1737 19.3016 12.9654 18.5732C10.2965 18.5732 12.5628 7.72299 12.5628 5.35639C13.3683 1.8209 15.9345 0 18.6034 0C21.2723 0 23.5339 1.78488 24.6439 3.92802Z" fill="#FFC90E"/>
<path d="M6.11989 17.4806C6.11989 18.6874 5.63776 22.0109 2.49565 22.5791C0.48175 22.9433 -0.726157 20.0299 0.482178 17.4806C1.14219 16.0882 1.74424 15.2955 3.30104 15.2955C4.85783 15.2955 6.11989 16.2738 6.11989 17.4806Z" fill="#FFC90E"/>
<path d="M25.5712 16.5418C26.1426 17.6323 27.2806 20.8225 24.7101 22.5527C23.0626 23.6616 20.5916 21.4966 20.4765 18.7249C20.4136 17.211 20.5823 16.2616 21.9892 15.6587C23.396 15.0559 24.9998 15.4512 25.5712 16.5418Z" fill="#FFC90E"/>
<path d="M19.0976 20.8625C19.729 21.9257 21.043 25.06 18.5721 26.905C16.9884 28.0875 14.4 26.0375 14.1308 23.2747C13.9838 21.7655 14.0995 20.8096 15.4711 20.1435C16.8426 19.4774 18.4663 19.7993 19.0976 20.8625Z" fill="#FFC90E"/>
<path d="M12.2395 21.8509C12.2395 23.0576 11.7574 26.3812 8.61528 26.9494C6.60138 27.3136 5.39347 24.4001 6.60181 21.8509C7.26182 20.4584 7.86387 19.6658 9.42067 19.6658C10.9775 19.6658 12.2395 20.6441 12.2395 21.8509Z" fill="#FFC90E"/>
</svg>
