<svg width="163" height="50" viewBox="0 0 163 50" fill="none" xmlns="http://www.w3.org/2000/svg">
<path d="M7.15967 9.42969V40H3.29639V9.42969H7.15967ZM17.4688 23.1821V26.4995H6.4248V23.1821H17.4688ZM19.2114 9.42969V12.7471H6.4248V9.42969H19.2114ZM31.1582 40.4199C29.8005 40.4199 28.5757 40.217 27.4839 39.811C26.3921 39.4051 25.4613 38.7892 24.6914 37.9634C23.9215 37.1235 23.3337 36.0667 22.9277 34.793C22.5218 33.5192 22.3188 32.0145 22.3188 30.2788V27.7173C22.3188 25.7157 22.5498 24.022 23.0117 22.6362C23.4876 21.2505 24.1245 20.1377 24.9224 19.2979C25.7202 18.444 26.623 17.8281 27.6309 17.4502C28.6387 17.0583 29.6745 16.8623 30.7383 16.8623C32.166 16.8623 33.3838 17.0933 34.3916 17.5552C35.3994 18.0171 36.2183 18.703 36.8481 19.6128C37.478 20.5226 37.9399 21.6424 38.2339 22.9722C38.5418 24.3019 38.6958 25.8346 38.6958 27.5703V29.7329H24.5024V26.5625H34.9795V26.0376C34.9235 24.8618 34.7625 23.826 34.4966 22.9302C34.2446 22.0343 33.8247 21.3345 33.2368 20.8306C32.6489 20.3127 31.8161 20.0537 30.7383 20.0537C30.0524 20.0537 29.4155 20.1727 28.8276 20.4106C28.2537 20.6346 27.7568 21.0335 27.3369 21.6074C26.931 22.1673 26.609 22.9442 26.3711 23.938C26.1471 24.9318 26.0352 26.1916 26.0352 27.7173V30.2788C26.0352 31.4966 26.1471 32.5464 26.3711 33.4282C26.609 34.2961 26.952 35.0169 27.3999 35.5908C27.8618 36.1507 28.4217 36.5706 29.0796 36.8506C29.7515 37.1165 30.5143 37.2495 31.3682 37.2495C32.6139 37.2495 33.6427 37.0116 34.4546 36.5356C35.2664 36.0457 35.9733 35.4229 36.5752 34.667L38.5278 36.9976C38.1219 37.5715 37.59 38.1243 36.9321 38.6562C36.2882 39.1742 35.4904 39.6011 34.5386 39.937C33.6007 40.259 32.474 40.4199 31.1582 40.4199ZM47.1782 7.75V40H43.4829V7.75H47.1782ZM56.7734 21.6494V48.7344H53.0571V17.2822H56.4375L56.7734 21.6494ZM69.4761 27.6123V29.7329C69.4761 31.5246 69.3081 33.0923 68.9722 34.436C68.6502 35.7658 68.1673 36.8786 67.5234 37.7744C66.8936 38.6562 66.1167 39.3211 65.1929 39.769C64.269 40.203 63.2122 40.4199 62.0225 40.4199C60.8327 40.4199 59.7969 40.196 58.915 39.748C58.0472 39.2861 57.3123 38.6213 56.7104 37.7534C56.1226 36.8856 55.6536 35.8428 55.3037 34.625C54.9678 33.3932 54.7368 32.0145 54.6108 30.4888V27.2554C54.7368 25.6457 54.9678 24.2039 55.3037 22.9302C55.6396 21.6424 56.1016 20.5506 56.6895 19.6548C57.2913 18.745 58.0262 18.0521 58.894 17.5762C59.7759 17.1003 60.8047 16.8623 61.9805 16.8623C63.1982 16.8623 64.269 17.0723 65.1929 17.4922C66.1307 17.9121 66.9146 18.563 67.5444 19.4448C68.1883 20.3127 68.6712 21.4255 68.9932 22.7832C69.3151 24.127 69.4761 25.7367 69.4761 27.6123ZM65.7598 29.7329V27.6123C65.7598 26.3525 65.6618 25.2537 65.4658 24.3159C65.2839 23.3781 64.9899 22.6012 64.584 21.9854C64.1781 21.3695 63.6672 20.9076 63.0513 20.5996C62.4354 20.2917 61.6935 20.1377 60.8257 20.1377C60.0838 20.1377 59.4259 20.2917 58.8521 20.5996C58.2922 20.9076 57.8092 21.3275 57.4033 21.8594C56.9974 22.3773 56.6615 22.9722 56.3955 23.644C56.1296 24.3019 55.9336 24.9878 55.8076 25.7017V32.0635C56.0456 32.9593 56.3605 33.8062 56.7524 34.604C57.1444 35.3879 57.6693 36.0247 58.3271 36.5146C58.999 37.0046 59.8459 37.2495 60.8677 37.2495C61.7215 37.2495 62.4564 37.0955 63.0723 36.7876C63.6882 36.4797 64.1921 36.0177 64.584 35.4019C64.9899 34.772 65.2839 33.9881 65.4658 33.0503C65.6618 32.0985 65.7598 30.9927 65.7598 29.7329ZM85.748 34.751V17.2822H89.4644V40H85.937L85.748 34.751ZM86.4409 29.9639L87.9106 29.9219C87.9106 31.4336 87.7777 32.8333 87.5117 34.1211C87.2598 35.3949 86.8398 36.5007 86.252 37.4385C85.6781 38.3763 84.9152 39.1112 83.9634 39.6431C83.0116 40.161 81.8428 40.4199 80.457 40.4199C79.5192 40.4199 78.6654 40.259 77.8955 39.937C77.1396 39.6151 76.4818 39.1182 75.9219 38.4463C75.376 37.7744 74.9491 36.8996 74.6411 35.8218C74.3472 34.744 74.2002 33.4492 74.2002 31.9375V17.2822H77.8955V31.9795C77.8955 33.0013 77.9865 33.8481 78.1685 34.52C78.3504 35.1779 78.5954 35.7028 78.9033 36.0947C79.2113 36.4727 79.5542 36.7386 79.9321 36.8926C80.3101 37.0465 80.695 37.1235 81.0869 37.1235C82.4027 37.1235 83.4525 36.8086 84.2363 36.1787C85.0202 35.5348 85.5801 34.674 85.916 33.5962C86.266 32.5044 86.4409 31.2936 86.4409 29.9639ZM106.954 35.5908V7.75H110.649V40H107.269L106.954 35.5908ZM94.2515 29.7329V27.6123C94.2515 25.7367 94.4334 24.127 94.7974 22.7832C95.1613 21.4255 95.6792 20.3127 96.3511 19.4448C97.0229 18.563 97.8278 17.9121 98.7656 17.4922C99.7035 17.0723 100.739 16.8623 101.873 16.8623C103.049 16.8623 104.057 17.1003 104.896 17.5762C105.75 18.0521 106.464 18.745 107.038 19.6548C107.612 20.5506 108.06 21.6424 108.382 22.9302C108.718 24.2039 108.942 25.6457 109.054 27.2554V30.0898C108.928 31.6855 108.697 33.1203 108.361 34.394C108.039 35.6678 107.591 36.7526 107.017 37.6484C106.443 38.5443 105.729 39.2301 104.875 39.7061C104.022 40.182 103.007 40.4199 101.831 40.4199C100.711 40.4199 99.6895 40.203 98.7656 39.769C97.8418 39.3211 97.0369 38.6562 96.3511 37.7744C95.6792 36.8786 95.1613 35.7658 94.7974 34.436C94.4334 33.0923 94.2515 31.5246 94.2515 29.7329ZM97.9678 27.6123V29.7329C97.9678 30.9927 98.0588 32.0915 98.2407 33.0293C98.4227 33.9531 98.7096 34.723 99.1016 35.3389C99.4935 35.9408 99.9904 36.3887 100.592 36.6826C101.208 36.9766 101.943 37.1235 102.797 37.1235C103.833 37.1235 104.68 36.8716 105.337 36.3677C105.995 35.8638 106.52 35.1989 106.912 34.373C107.318 33.5332 107.64 32.6304 107.878 31.6646V25.7017C107.738 24.9878 107.535 24.3019 107.269 23.644C107.003 22.9722 106.667 22.3773 106.261 21.8594C105.869 21.3275 105.386 20.9076 104.812 20.5996C104.253 20.2917 103.595 20.1377 102.839 20.1377C101.985 20.1377 101.243 20.2917 100.613 20.5996C99.9974 20.9076 99.4935 21.3695 99.1016 21.9854C98.7236 22.6012 98.4367 23.3781 98.2407 24.3159C98.0588 25.2537 97.9678 26.3525 97.9678 27.6123ZM157.009 34.1841C157.009 33.6102 156.869 33.1063 156.589 32.6724C156.309 32.2384 155.847 31.8185 155.203 31.4126C154.573 31.0067 153.719 30.5728 152.642 30.1108C151.592 29.6769 150.647 29.25 149.807 28.8301C148.981 28.3962 148.281 27.9272 147.708 27.4233C147.134 26.9194 146.693 26.3385 146.385 25.6807C146.091 25.0088 145.944 24.2179 145.944 23.3081C145.944 22.3983 146.112 21.5584 146.448 20.7886C146.798 20.0047 147.288 19.3188 147.917 18.731C148.547 18.1431 149.303 17.6882 150.185 17.3662C151.067 17.0303 152.054 16.8623 153.146 16.8623C154.699 16.8623 156.022 17.1632 157.114 17.7651C158.206 18.367 159.038 19.1929 159.612 20.2427C160.2 21.2785 160.494 22.4473 160.494 23.749H156.799C156.799 23.1191 156.659 22.5243 156.379 21.9644C156.099 21.4045 155.686 20.9495 155.14 20.5996C154.594 20.2357 153.929 20.0537 153.146 20.0537C152.32 20.0537 151.648 20.2007 151.13 20.4946C150.612 20.7886 150.234 21.1735 149.996 21.6494C149.772 22.1113 149.66 22.6222 149.66 23.1821C149.66 23.6021 149.716 23.966 149.828 24.2739C149.954 24.5679 150.164 24.8478 150.458 25.1138C150.752 25.3657 151.151 25.6317 151.655 25.9116C152.173 26.1776 152.831 26.4855 153.628 26.8354C155.168 27.4373 156.463 28.0462 157.513 28.6621C158.562 29.278 159.36 29.9989 159.906 30.8247C160.452 31.6506 160.725 32.6724 160.725 33.8901C160.725 34.884 160.543 35.7868 160.179 36.5986C159.829 37.3965 159.325 38.0824 158.667 38.6562C158.01 39.2301 157.219 39.6711 156.295 39.979C155.385 40.2729 154.363 40.4199 153.229 40.4199C151.522 40.4199 150.073 40.084 148.883 39.4121C147.708 38.7262 146.812 37.8374 146.196 36.7456C145.594 35.6398 145.293 34.457 145.293 33.1973H149.009C149.051 34.2611 149.289 35.0869 149.723 35.6748C150.171 36.2627 150.71 36.6686 151.34 36.8926C151.97 37.1165 152.6 37.2285 153.229 37.2285C154.055 37.2285 154.748 37.1095 155.308 36.8716C155.868 36.6196 156.288 36.2627 156.568 35.8008C156.862 35.3389 157.009 34.8 157.009 34.1841Z" fill="black"/>
<path d="M128.214 21.9758C128.214 25.7973 131.327 33.6296 128.214 33.6296C125.1 33.6296 116.132 28.1669 116.132 22.34C116.132 18.6982 118.952 15.0564 122.173 15.0564C125.394 15.0564 129.576 17.5492 128.214 21.9758Z" fill="#FFC90E"/>
<path d="M139.644 18.928C143.268 25.9254 129.174 34.3016 127.965 33.5732C125.297 33.5732 127.563 22.723 127.563 20.3564C128.368 16.8209 130.934 15 133.603 15C136.272 15 138.534 16.7849 139.644 18.928Z" fill="#FFC90E"/>
<path d="M121.12 32.4806C121.12 33.6874 120.638 37.0109 117.496 37.5791C115.482 37.9433 114.274 35.0299 115.482 32.4806C116.142 31.0882 116.744 30.2955 118.301 30.2955C119.858 30.2955 121.12 31.2738 121.12 32.4806Z" fill="#FFC90E"/>
<path d="M140.571 31.5418C141.143 32.6323 142.281 35.8225 139.71 37.5527C138.063 38.6616 135.592 36.4966 135.476 33.7249C135.414 32.211 135.582 31.2616 136.989 30.6587C138.396 30.0559 140 30.4512 140.571 31.5418Z" fill="#FFC90E"/>
<path d="M134.098 35.8625C134.729 36.9257 136.043 40.06 133.572 41.905C131.988 43.0875 129.4 41.0375 129.131 38.2747C128.984 36.7655 129.1 35.8096 130.471 35.1435C131.843 34.4774 133.466 34.7993 134.098 35.8625Z" fill="#FFC90E"/>
<path d="M127.24 36.8509C127.24 38.0576 126.757 41.3812 123.615 41.9494C121.601 42.3136 120.393 39.4001 121.602 36.8509C122.262 35.4584 122.864 34.6658 124.421 34.6658C125.977 34.6658 127.24 35.6441 127.24 36.8509Z" fill="#FFC90E"/>
</svg>
