<svg width="173" height="49" viewBox="0 0 173 49" fill="none" xmlns="http://www.w3.org/2000/svg">
<path d="M132.536 19.978C132.536 24.8964 136.432 34.9767 132.536 34.9767C128.639 34.9767 117.417 27.9461 117.417 20.4467C117.417 15.7596 120.946 11.0725 124.977 11.0725C129.008 11.0725 134.241 14.2809 132.536 19.978Z" fill="#FFC90E"/>
<path d="M146.84 16.0555C151.375 25.0613 133.737 35.8416 132.225 34.9042C128.885 34.9042 131.721 20.9397 131.721 17.8938C132.729 13.3436 135.941 11 139.281 11C142.62 11 145.451 13.2972 146.84 16.0555Z" fill="#FFC90E"/>
<path d="M123.659 33.4981C123.659 35.0512 123.055 39.3287 119.123 40.06C116.603 40.5287 115.091 36.779 116.603 33.4981C117.429 31.7059 118.183 30.6858 120.131 30.6858C122.079 30.6858 123.659 31.9449 123.659 33.4981Z" fill="#FFC90E"/>
<path d="M148 32.2897C148.715 33.6932 150.139 37.799 146.923 40.0259C144.861 41.4531 141.769 38.6666 141.625 35.0994C141.546 33.151 141.757 31.929 143.518 31.1531C145.278 30.3773 147.285 30.8861 148 32.2897Z" fill="#FFC90E"/>
<path d="M139.899 37.8505C140.689 39.2188 142.333 43.2528 139.241 45.6273C137.259 47.1492 134.02 44.5109 133.683 40.955C133.5 39.0127 133.644 37.7824 135.361 36.9251C137.077 36.0679 139.109 36.4821 139.899 37.8505Z" fill="#FFC90E"/>
<path d="M131.317 39.1226C131.317 40.6757 130.713 44.9532 126.781 45.6845C124.261 46.1532 122.749 42.4035 124.262 39.1226C125.088 37.3305 125.841 36.3103 127.789 36.3103C129.737 36.3103 131.317 37.5694 131.317 39.1226Z" fill="#FFC90E"/>
<path d="M7.15967 9.42969V40H3.29639V9.42969H7.15967ZM17.4688 23.1821V26.4995H6.4248V23.1821H17.4688ZM19.2114 9.42969V12.7471H6.4248V9.42969H19.2114ZM31.1582 40.4199C29.8005 40.4199 28.5757 40.217 27.4839 39.811C26.3921 39.4051 25.4613 38.7892 24.6914 37.9634C23.9215 37.1235 23.3337 36.0667 22.9277 34.793C22.5218 33.5192 22.3188 32.0145 22.3188 30.2788V27.7173C22.3188 25.7157 22.5498 24.022 23.0117 22.6362C23.4876 21.2505 24.1245 20.1377 24.9224 19.2979C25.7202 18.444 26.623 17.8281 27.6309 17.4502C28.6387 17.0583 29.6745 16.8623 30.7383 16.8623C32.166 16.8623 33.3838 17.0933 34.3916 17.5552C35.3994 18.0171 36.2183 18.703 36.8481 19.6128C37.478 20.5226 37.9399 21.6424 38.2339 22.9722C38.5418 24.3019 38.6958 25.8346 38.6958 27.5703V29.7329H24.5024V26.5625H34.9795V26.0376C34.9235 24.8618 34.7625 23.826 34.4966 22.9302C34.2446 22.0343 33.8247 21.3345 33.2368 20.8306C32.6489 20.3127 31.8161 20.0537 30.7383 20.0537C30.0524 20.0537 29.4155 20.1727 28.8276 20.4106C28.2537 20.6346 27.7568 21.0335 27.3369 21.6074C26.931 22.1673 26.609 22.9442 26.3711 23.938C26.1471 24.9318 26.0352 26.1916 26.0352 27.7173V30.2788C26.0352 31.4966 26.1471 32.5464 26.3711 33.4282C26.609 34.2961 26.952 35.0169 27.3999 35.5908C27.8618 36.1507 28.4217 36.5706 29.0796 36.8506C29.7515 37.1165 30.5143 37.2495 31.3682 37.2495C32.6139 37.2495 33.6427 37.0116 34.4546 36.5356C35.2664 36.0457 35.9733 35.4229 36.5752 34.667L38.5278 36.9976C38.1219 37.5715 37.59 38.1243 36.9321 38.6562C36.2882 39.1742 35.4904 39.6011 34.5386 39.937C33.6007 40.259 32.474 40.4199 31.1582 40.4199ZM47.1782 7.75V40H43.4829V7.75H47.1782ZM56.7734 21.6494V48.7344H53.0571V17.2822H56.4375L56.7734 21.6494ZM69.4761 27.6123V29.7329C69.4761 31.5246 69.3081 33.0923 68.9722 34.436C68.6502 35.7658 68.1673 36.8786 67.5234 37.7744C66.8936 38.6562 66.1167 39.3211 65.1929 39.769C64.269 40.203 63.2122 40.4199 62.0225 40.4199C60.8327 40.4199 59.7969 40.196 58.915 39.748C58.0472 39.2861 57.3123 38.6213 56.7104 37.7534C56.1226 36.8856 55.6536 35.8428 55.3037 34.625C54.9678 33.3932 54.7368 32.0145 54.6108 30.4888V27.2554C54.7368 25.6457 54.9678 24.2039 55.3037 22.9302C55.6396 21.6424 56.1016 20.5506 56.6895 19.6548C57.2913 18.745 58.0262 18.0521 58.894 17.5762C59.7759 17.1003 60.8047 16.8623 61.9805 16.8623C63.1982 16.8623 64.269 17.0723 65.1929 17.4922C66.1307 17.9121 66.9146 18.563 67.5444 19.4448C68.1883 20.3127 68.6712 21.4255 68.9932 22.7832C69.3151 24.127 69.4761 25.7367 69.4761 27.6123ZM65.7598 29.7329V27.6123C65.7598 26.3525 65.6618 25.2537 65.4658 24.3159C65.2839 23.3781 64.9899 22.6012 64.584 21.9854C64.1781 21.3695 63.6672 20.9076 63.0513 20.5996C62.4354 20.2917 61.6935 20.1377 60.8257 20.1377C60.0838 20.1377 59.4259 20.2917 58.8521 20.5996C58.2922 20.9076 57.8092 21.3275 57.4033 21.8594C56.9974 22.3773 56.6615 22.9722 56.3955 23.644C56.1296 24.3019 55.9336 24.9878 55.8076 25.7017V32.0635C56.0456 32.9593 56.3605 33.8062 56.7524 34.604C57.1444 35.3879 57.6693 36.0247 58.3271 36.5146C58.999 37.0046 59.8459 37.2495 60.8677 37.2495C61.7215 37.2495 62.4564 37.0955 63.0723 36.7876C63.6882 36.4797 64.1921 36.0177 64.584 35.4019C64.9899 34.772 65.2839 33.9881 65.4658 33.0503C65.6618 32.0985 65.7598 30.9927 65.7598 29.7329ZM85.748 34.751V17.2822H89.4644V40H85.937L85.748 34.751ZM86.4409 29.9639L87.9106 29.9219C87.9106 31.4336 87.7777 32.8333 87.5117 34.1211C87.2598 35.3949 86.8398 36.5007 86.252 37.4385C85.6781 38.3763 84.9152 39.1112 83.9634 39.6431C83.0116 40.161 81.8428 40.4199 80.457 40.4199C79.5192 40.4199 78.6654 40.259 77.8955 39.937C77.1396 39.6151 76.4818 39.1182 75.9219 38.4463C75.376 37.7744 74.9491 36.8996 74.6411 35.8218C74.3472 34.744 74.2002 33.4492 74.2002 31.9375V17.2822H77.8955V31.9795C77.8955 33.0013 77.9865 33.8481 78.1685 34.52C78.3504 35.1779 78.5954 35.7028 78.9033 36.0947C79.2113 36.4727 79.5542 36.7386 79.9321 36.8926C80.3101 37.0465 80.695 37.1235 81.0869 37.1235C82.4027 37.1235 83.4525 36.8086 84.2363 36.1787C85.0202 35.5348 85.5801 34.674 85.916 33.5962C86.266 32.5044 86.4409 31.2936 86.4409 29.9639ZM106.954 35.5908V7.75H110.649V40H107.269L106.954 35.5908ZM94.2515 29.7329V27.6123C94.2515 25.7367 94.4334 24.127 94.7974 22.7832C95.1613 21.4255 95.6792 20.3127 96.3511 19.4448C97.0229 18.563 97.8278 17.9121 98.7656 17.4922C99.7035 17.0723 100.739 16.8623 101.873 16.8623C103.049 16.8623 104.057 17.1003 104.896 17.5762C105.75 18.0521 106.464 18.745 107.038 19.6548C107.612 20.5506 108.06 21.6424 108.382 22.9302C108.718 24.2039 108.942 25.6457 109.054 27.2554V30.0898C108.928 31.6855 108.697 33.1203 108.361 34.394C108.039 35.6678 107.591 36.7526 107.017 37.6484C106.443 38.5443 105.729 39.2301 104.875 39.7061C104.022 40.182 103.007 40.4199 101.831 40.4199C100.711 40.4199 99.6895 40.203 98.7656 39.769C97.8418 39.3211 97.0369 38.6562 96.3511 37.7744C95.6792 36.8786 95.1613 35.7658 94.7974 34.436C94.4334 33.0923 94.2515 31.5246 94.2515 29.7329ZM97.9678 27.6123V29.7329C97.9678 30.9927 98.0588 32.0915 98.2407 33.0293C98.4227 33.9531 98.7096 34.723 99.1016 35.3389C99.4935 35.9408 99.9904 36.3887 100.592 36.6826C101.208 36.9766 101.943 37.1235 102.797 37.1235C103.833 37.1235 104.68 36.8716 105.337 36.3677C105.995 35.8638 106.52 35.1989 106.912 34.373C107.318 33.5332 107.64 32.6304 107.878 31.6646V25.7017C107.738 24.9878 107.535 24.3019 107.269 23.644C107.003 22.9722 106.667 22.3773 106.261 21.8594C105.869 21.3275 105.386 20.9076 104.812 20.5996C104.253 20.2917 103.595 20.1377 102.839 20.1377C101.985 20.1377 101.243 20.2917 100.613 20.5996C99.9974 20.9076 99.4935 21.3695 99.1016 21.9854C98.7236 22.6012 98.4367 23.3781 98.2407 24.3159C98.0588 25.2537 97.9678 26.3525 97.9678 27.6123ZM166.877 34.1841C166.877 33.6102 166.737 33.1063 166.457 32.6724C166.177 32.2384 165.715 31.8185 165.071 31.4126C164.441 31.0067 163.588 30.5728 162.51 30.1108C161.46 29.6769 160.515 29.25 159.675 28.8301C158.849 28.3962 158.15 27.9272 157.576 27.4233C157.002 26.9194 156.561 26.3385 156.253 25.6807C155.959 25.0088 155.812 24.2179 155.812 23.3081C155.812 22.3983 155.98 21.5584 156.316 20.7886C156.666 20.0047 157.156 19.3188 157.786 18.731C158.416 18.1431 159.171 17.6882 160.053 17.3662C160.935 17.0303 161.922 16.8623 163.014 16.8623C164.567 16.8623 165.89 17.1632 166.982 17.7651C168.074 18.367 168.907 19.1929 169.48 20.2427C170.068 21.2785 170.362 22.4473 170.362 23.749H166.667C166.667 23.1191 166.527 22.5243 166.247 21.9644C165.967 21.4045 165.554 20.9495 165.008 20.5996C164.462 20.2357 163.798 20.0537 163.014 20.0537C162.188 20.0537 161.516 20.2007 160.998 20.4946C160.48 20.7886 160.102 21.1735 159.864 21.6494C159.64 22.1113 159.528 22.6222 159.528 23.1821C159.528 23.6021 159.584 23.966 159.696 24.2739C159.822 24.5679 160.032 24.8478 160.326 25.1138C160.62 25.3657 161.019 25.6317 161.523 25.9116C162.041 26.1776 162.699 26.4855 163.497 26.8354C165.036 27.4373 166.331 28.0462 167.381 28.6621C168.431 29.278 169.229 29.9989 169.774 30.8247C170.32 31.6506 170.593 32.6724 170.593 33.8901C170.593 34.884 170.411 35.7868 170.047 36.5986C169.697 37.3965 169.194 38.0824 168.536 38.6562C167.878 39.2301 167.087 39.6711 166.163 39.979C165.253 40.2729 164.231 40.4199 163.098 40.4199C161.39 40.4199 159.941 40.084 158.751 39.4121C157.576 38.7262 156.68 37.8374 156.064 36.7456C155.462 35.6398 155.161 34.457 155.161 33.1973H158.877C158.919 34.2611 159.157 35.0869 159.591 35.6748C160.039 36.2627 160.578 36.6686 161.208 36.8926C161.838 37.1165 162.468 37.2285 163.098 37.2285C163.924 37.2285 164.616 37.1095 165.176 36.8716C165.736 36.6196 166.156 36.2627 166.436 35.8008C166.73 35.3389 166.877 34.8 166.877 34.1841Z" fill="white"/>
</svg>
