<svg width="27" height="18" viewBox="0 0 27 18" fill="none" xmlns="http://www.w3.org/2000/svg">
<path d="M0 17C0 17.5523 0.447715 18 1 18H26C26.5523 18 27 17.5523 27 17V16C27 15.4477 26.5523 15 26 15H0.999999C0.447715 15 0 15.4477 0 16V17ZM0 9.5C0 10.0523 0.447715 10.5 1 10.5H26C26.5523 10.5 27 10.0523 27 9.5V8.5C27 7.94772 26.5523 7.5 26 7.5H0.999999C0.447715 7.5 0 7.94772 0 8.5V9.5ZM0.999999 0C0.447715 0 0 0.447715 0 1V2C0 2.55228 0.447715 3 1 3H26C26.5523 3 27 2.55228 27 2V1C27 0.447715 26.5523 0 26 0H0.999999Z" fill="black"/>
</svg>
